<svg viewBox="0 0 512 512" xmlns="http://www.w3.org/2000/svg"><path d="M233 513c.1-2.1-1.5-1.8-2.7-1.9-28.8-3.9-55.2-14.1-80-29.1-3.4-2.1-6.3-5-8.7-8.2-5.6-7.4-4.9-15.3 2.4-24 22.4-26.6 44.9-53.1 67.3-79.6 1.8-2.2 3.5-4.4 5.5-6.5 6.5-6.9 15.9-8.9 24.8-5.4 9.6 3.7 14.4 10.7 14.4 21.1 0 26.5.3 53-.3 79.5-.2 11.8-.4 23.6-.7 35.4-.2 7.9-6.4 15-14.2 16.5-1.4.3-3.6-.7-3.7 2.1-1.4.1-2.8.1-4.1.1zm23.9-299.5c-.1 6.9.3 12-1.1 17.1-2.1 8.2-5.9 14.8-14.7 17.3-9.4 2.7-16.2-1.7-22.1-8-10.1-10.9-16.9-24.2-24.9-36.7-20.1-31.6-40.1-63.5-60.2-95.2-9-14.2-18-28.4-26.9-42.6-6.5-10.3-4.5-19.7 5.8-26.5 11.5-7.7 24.4-12.1 37.3-16.6 16.5-5.8 33.4-9.9 50.6-12.8 8.2-1.3 16.4-3.1 24.8-2.2 6.7.7 12.6 3 16.6 8.9 2.3 3.3 2.5 7.3 2.8 11 1.3 15.9 2.2 31.8 3.3 47.7 1.5 20.7 3.2 41.4 4.5 62.2.7 11.1 1.3 22.2 2.2 33.4 1 14.8 1.4 29.8 2 43zM446.1 388c.3 5-1.4 9.6-3.6 13.8-12.7 24.9-29.6 46.5-50.8 64.7-6.1 5.2-13.1 9.3-21.9 6.6-3.8-1.2-6.8-3.2-9-6.6-14.7-22-28.1-44.8-42.1-67.2-6.1-9.7-11.6-19.8-18.1-29.2-11.4-16.7 1.7-34.5 15.6-36.5 6.6-1 12.3 2.4 18.3 4.1 11.8 3.5 23.3 7.7 35 11.6 21.9 7.3 43.8 14.6 65.7 22.1 7.1 2.4 10.9 8.7 10.9 16.6zm-3-143.3c0 10.2-3.9 15.7-13.6 18.3-19.7 5.2-39.6 10.1-59.4 15-15.5 3.9-31 7.4-46.4 11.6-16.7 4.6-29.6-2.6-33-19.2-1.1-5.1.5-9.9 3.6-14 22-30 44-60 66.2-89.9 9.7-13.2 21.4-14 33.9-2.3 14.7 13.8 25.8 30.3 36 47.5 4.5 7.6 8.3 15.5 11.3 23.9 1 3.1 1.7 6.3 1.4 9.1zM62.2 310.2c.2-17.1 1.1-34.2 5.8-50.8 1-3.4 2.2-6.6 4.1-9.6 5.6-8.4 13.4-11 22.5-7.3 35.4 14.4 70.8 28.9 106.1 43.4 9.3 3.8 13.6 11.5 13.1 22.4-.5 9.4-5.7 16.4-14.7 19.2-35.6 11.2-71.2 22.9-106.9 34-15 4.7-25.4-3.3-28.1-21.5-.7-4.9-1.6-9.9-1.9-14.8-.3-5 0-10 0-15z" fill="#A7A7A7"/></svg>