<?xml version="1.0" ?><!DOCTYPE svg  PUBLIC '-//W3C//DTD SVG 1.1//EN'  'http://www.w3.org/Graphics/SVG/1.1/DTD/svg11.dtd'><svg enable-background="new 0 0 512 512" id="Layer_1" version="1.1" viewBox="0 0 512 512" xml:space="preserve" xmlns="http://www.w3.org/2000/svg" xmlns:xlink="http://www.w3.org/1999/xlink"><g><path d="M233,513c0.1-2.1-1.5-1.8-2.7-1.9c-28.8-3.9-55.2-14.1-80-29.1c-3.4-2.1-6.3-5-8.7-8.2   c-5.6-7.4-4.9-15.3,2.4-24c22.4-26.6,44.9-53.1,67.3-79.6c1.8-2.2,3.5-4.4,5.5-6.5c6.5-6.9,15.9-8.9,24.8-5.4   c9.6,3.7,14.4,10.7,14.4,21.1c0,26.5,0.3,53-0.3,79.5c-0.2,11.8-0.4,23.6-0.7,35.4c-0.2,7.9-6.4,15-14.2,16.5   c-1.4,0.3-3.6-0.7-3.7,2.1C235.7,513,234.3,513,233,513z" fill="#A7A7A7"/><path d="M256.9,213.5c-0.1,6.9,0.3,12-1.1,17.1c-2.1,8.2-5.9,14.8-14.7,17.3c-9.4,2.7-16.2-1.7-22.1-8   c-10.1-10.9-16.9-24.2-24.9-36.7C174,171.6,154,139.7,133.9,108c-9-14.2-18-28.4-26.9-42.6c-6.5-10.3-4.5-19.7,5.8-26.5   c11.5-7.7,24.4-12.1,37.3-16.6c16.5-5.8,33.4-9.9,50.6-12.8c8.2-1.3,16.4-3.1,24.8-2.2c6.7,0.7,12.6,3,16.6,8.9   c2.3,3.3,2.5,7.3,2.8,11c1.3,15.9,2.2,31.8,3.3,47.7c1.5,20.7,3.2,41.4,4.5,62.2c0.7,11.1,1.3,22.2,2.2,33.4   C255.9,185.3,256.3,200.3,256.9,213.5z" fill="#A7A7A7"/><path d="M446.1,388c0.3,5-1.4,9.6-3.6,13.8c-12.7,24.9-29.6,46.5-50.8,64.7c-6.1,5.2-13.1,9.3-21.9,6.6   c-3.8-1.2-6.8-3.2-9-6.6c-14.7-22-28.1-44.8-42.1-67.2c-6.1-9.7-11.6-19.8-18.1-29.2c-11.4-16.7,1.7-34.5,15.6-36.5   c6.6-1,12.3,2.4,18.3,4.1c11.8,3.5,23.3,7.7,35,11.6c21.9,7.3,43.8,14.6,65.7,22.1C442.3,373.8,446.1,380.1,446.1,388z" fill="#A7A7A7"/><path d="M443.1,244.7c0,10.2-3.9,15.7-13.6,18.3c-19.7,5.2-39.6,10.1-59.4,15c-15.5,3.9-31,7.4-46.4,11.6   c-16.7,4.6-29.6-2.6-33-19.2c-1.1-5.1,0.5-9.9,3.6-14c22-30,44-60,66.2-89.9c9.7-13.2,21.4-14,33.9-2.3   c14.7,13.8,25.8,30.3,36,47.5c4.5,7.6,8.3,15.5,11.3,23.9C442.7,238.7,443.4,241.9,443.1,244.7z" fill="#A7A7A7"/><path d="M62.2,310.2c0.2-17.1,1.1-34.2,5.8-50.8c1-3.4,2.2-6.6,4.1-9.6c5.6-8.4,13.4-11,22.5-7.3   c35.4,14.4,70.8,28.9,106.1,43.4c9.3,3.8,13.6,11.5,13.1,22.4c-0.5,9.4-5.7,16.4-14.7,19.2c-35.6,11.2-71.2,22.9-106.9,34   c-15,4.7-25.4-3.3-28.1-21.5c-0.7-4.9-1.6-9.9-1.9-14.8C61.9,320.2,62.2,315.2,62.2,310.2z" fill="#A7A7A7"/></g></svg>